<svg width="20" height="20" viewBox="0 0 20 20" fill="none" xmlns="http://www.w3.org/2000/svg">
<g clip-path="url(#clip0_310_15810)">
<path d="M19.2193 9.12515H10.2505V11.7814H16.688C16.3443 15.4689 13.3443 17.0627 10.438 17.0627C6.7505 17.0627 3.46925 14.1877 3.46925 10.0314C3.46925 6.0314 6.59425 3.00016 10.438 3.00016C13.3755 3.00016 15.1568 4.9064 15.1568 4.9064L16.9693 3.00016C16.9693 3.00016 14.5318 0.343906 10.313 0.343906C4.7505 0.312656 0.500488 4.9689 0.500488 10.0002C0.500488 14.8752 4.5005 19.6877 10.4068 19.6877C15.6255 19.6877 19.3755 16.1564 19.3755 10.8752C19.4068 9.7814 19.2193 9.12515 19.2193 9.12515Z" fill="white"/>
</g>
<defs>
<clipPath id="clip0_310_15810">
<rect width="20" height="20" fill="white"/>
</clipPath>
</defs>
</svg>
