<svg width="400" height="28" viewBox="0 0 400 28" fill="none" xmlns="http://www.w3.org/2000/svg">
<line x1="4.37114e-08" y1="13.5" x2="400" y2="13.5" stroke="#DFE4EA"/>
<rect width="123" height="28" transform="translate(138)" fill="white"/>
<path d="M158.773 12H157.364C157.28 11.5947 157.134 11.2386 156.926 10.9318C156.722 10.625 156.472 10.3674 156.176 10.1591C155.884 9.94697 155.561 9.78788 155.205 9.68182C154.848 9.57576 154.477 9.52273 154.091 9.52273C153.386 9.52273 152.748 9.70076 152.176 10.0568C151.608 10.4129 151.155 10.9375 150.818 11.6307C150.485 12.3239 150.318 13.1742 150.318 14.1818C150.318 15.1894 150.485 16.0398 150.818 16.733C151.155 17.4261 151.608 17.9508 152.176 18.3068C152.748 18.6629 153.386 18.8409 154.091 18.8409C154.477 18.8409 154.848 18.7879 155.205 18.6818C155.561 18.5758 155.884 18.4186 156.176 18.2102C156.472 17.9981 156.722 17.7386 156.926 17.4318C157.134 17.1212 157.28 16.7652 157.364 16.3636H158.773C158.667 16.9583 158.473 17.4905 158.193 17.9602C157.913 18.4299 157.564 18.8295 157.148 19.1591C156.731 19.4848 156.263 19.733 155.744 19.9034C155.229 20.0739 154.678 20.1591 154.091 20.1591C153.098 20.1591 152.216 19.9167 151.443 19.4318C150.67 18.947 150.063 18.2576 149.619 17.3636C149.176 16.4697 148.955 15.4091 148.955 14.1818C148.955 12.9545 149.176 11.8939 149.619 11C150.063 10.1061 150.67 9.41667 151.443 8.93182C152.216 8.44697 153.098 8.20455 154.091 8.20455C154.678 8.20455 155.229 8.28977 155.744 8.46023C156.263 8.63068 156.731 8.88068 157.148 9.21023C157.564 9.53598 157.913 9.93371 158.193 10.4034C158.473 10.8693 158.667 11.4015 158.773 12ZM164.413 20.1818C163.625 20.1818 162.934 19.9943 162.339 19.6193C161.749 19.2443 161.286 18.7197 160.953 18.0455C160.624 17.3712 160.459 16.5833 160.459 15.6818C160.459 14.7727 160.624 13.9792 160.953 13.3011C161.286 12.6231 161.749 12.0966 162.339 11.7216C162.934 11.3466 163.625 11.1591 164.413 11.1591C165.201 11.1591 165.891 11.3466 166.482 11.7216C167.076 12.0966 167.538 12.6231 167.868 13.3011C168.201 13.9792 168.368 14.7727 168.368 15.6818C168.368 16.5833 168.201 17.3712 167.868 18.0455C167.538 18.7197 167.076 19.2443 166.482 19.6193C165.891 19.9943 165.201 20.1818 164.413 20.1818ZM164.413 18.9773C165.012 18.9773 165.504 18.8239 165.891 18.517C166.277 18.2102 166.563 17.8068 166.749 17.3068C166.934 16.8068 167.027 16.2652 167.027 15.6818C167.027 15.0985 166.934 14.5549 166.749 14.0511C166.563 13.5473 166.277 13.1402 165.891 12.8295C165.504 12.5189 165.012 12.3636 164.413 12.3636C163.815 12.3636 163.322 12.5189 162.936 12.8295C162.55 13.1402 162.264 13.5473 162.078 14.0511C161.893 14.5549 161.8 15.0985 161.8 15.6818C161.8 16.2652 161.893 16.8068 162.078 17.3068C162.264 17.8068 162.55 18.2102 162.936 18.517C163.322 18.8239 163.815 18.9773 164.413 18.9773ZM171.756 14.75V20H170.415V11.2727H171.71V12.6364H171.824C172.028 12.1932 172.339 11.8371 172.756 11.5682C173.172 11.2955 173.71 11.1591 174.369 11.1591C174.96 11.1591 175.477 11.2803 175.92 11.5227C176.364 11.7614 176.708 12.125 176.955 12.6136C177.201 13.0985 177.324 13.7121 177.324 14.4545V20H175.983V14.5455C175.983 13.8598 175.805 13.3258 175.449 12.9432C175.093 12.5568 174.604 12.3636 173.983 12.3636C173.555 12.3636 173.172 12.4564 172.835 12.642C172.502 12.8277 172.239 13.0985 172.045 13.4545C171.852 13.8106 171.756 14.2424 171.756 14.75ZM181.115 14.75V20H179.774V11.2727H181.07V12.6364H181.183C181.388 12.1932 181.698 11.8371 182.115 11.5682C182.532 11.2955 183.07 11.1591 183.729 11.1591C184.32 11.1591 184.837 11.2803 185.28 11.5227C185.723 11.7614 186.068 12.125 186.314 12.6136C186.56 13.0985 186.683 13.7121 186.683 14.4545V20H185.342V14.5455C185.342 13.8598 185.164 13.3258 184.808 12.9432C184.452 12.5568 183.964 12.3636 183.342 12.3636C182.914 12.3636 182.532 12.4564 182.195 12.642C181.861 12.8277 181.598 13.0985 181.405 13.4545C181.212 13.8106 181.115 14.2424 181.115 14.75ZM192.793 20.1818C191.952 20.1818 191.226 19.9962 190.616 19.625C190.01 19.25 189.543 18.7273 189.213 18.0568C188.887 17.3826 188.724 16.5985 188.724 15.7045C188.724 14.8106 188.887 14.0227 189.213 13.3409C189.543 12.6553 190.001 12.1212 190.588 11.7386C191.179 11.3523 191.868 11.1591 192.656 11.1591C193.111 11.1591 193.56 11.2348 194.003 11.3864C194.446 11.5379 194.849 11.7841 195.213 12.125C195.577 12.4621 195.866 12.9091 196.082 13.4659C196.298 14.0227 196.406 14.7083 196.406 15.5227V16.0909H189.679V14.9318H195.043C195.043 14.4394 194.944 14 194.747 13.6136C194.554 13.2273 194.277 12.9223 193.918 12.6989C193.562 12.4754 193.141 12.3636 192.656 12.3636C192.122 12.3636 191.66 12.4962 191.27 12.7614C190.884 13.0227 190.586 13.3636 190.378 13.7841C190.17 14.2045 190.065 14.6553 190.065 15.1364V15.9091C190.065 16.5682 190.179 17.1269 190.406 17.5852C190.637 18.0398 190.957 18.3864 191.366 18.625C191.776 18.8598 192.251 18.9773 192.793 18.9773C193.145 18.9773 193.463 18.928 193.747 18.8295C194.035 18.7273 194.283 18.5758 194.491 18.375C194.7 18.1705 194.861 17.9167 194.974 17.6136L196.27 17.9773C196.134 18.4167 195.904 18.803 195.582 19.1364C195.26 19.4659 194.863 19.7235 194.389 19.9091C193.916 20.0909 193.384 20.1818 192.793 20.1818ZM201.991 20.1818C201.173 20.1818 200.469 19.9886 199.878 19.6023C199.287 19.2159 198.832 18.6837 198.514 18.0057C198.196 17.3277 198.037 16.553 198.037 15.6818C198.037 14.7955 198.2 14.0133 198.526 13.3352C198.855 12.6534 199.313 12.1212 199.901 11.7386C200.491 11.3523 201.181 11.1591 201.969 11.1591C202.582 11.1591 203.135 11.2727 203.628 11.5C204.12 11.7273 204.524 12.0455 204.838 12.4545C205.152 12.8636 205.348 13.3409 205.423 13.8864H204.082C203.98 13.4886 203.753 13.1364 203.401 12.8295C203.052 12.5189 202.582 12.3636 201.991 12.3636C201.469 12.3636 201.01 12.5 200.616 12.7727C200.226 13.0417 199.921 13.4223 199.702 13.9148C199.486 14.4034 199.378 14.9773 199.378 15.6364C199.378 16.3106 199.484 16.8977 199.696 17.3977C199.912 17.8977 200.215 18.286 200.605 18.5625C200.999 18.839 201.461 18.9773 201.991 18.9773C202.34 18.9773 202.656 18.9167 202.94 18.7955C203.224 18.6742 203.465 18.5 203.662 18.2727C203.859 18.0455 203.999 17.7727 204.082 17.4545H205.423C205.348 17.9697 205.16 18.4337 204.861 18.8466C204.565 19.2557 204.173 19.5814 203.685 19.8239C203.2 20.0625 202.635 20.1818 201.991 20.1818ZM211.179 11.2727V12.4091H206.656V11.2727H211.179ZM207.974 9.18182H209.315V17.5C209.315 17.8788 209.37 18.1629 209.48 18.3523C209.594 18.5379 209.738 18.6629 209.912 18.7273C210.09 18.7879 210.277 18.8182 210.474 18.8182C210.622 18.8182 210.743 18.8106 210.838 18.7955C210.933 18.7765 211.009 18.7614 211.065 18.75L211.338 19.9545C211.247 19.9886 211.12 20.0227 210.957 20.0568C210.795 20.0947 210.588 20.1136 210.338 20.1136C209.959 20.1136 209.588 20.0322 209.224 19.8693C208.865 19.7064 208.565 19.4583 208.327 19.125C208.092 18.7917 207.974 18.3712 207.974 17.8636V9.18182ZM219.991 20L216.81 8.36364H218.241L220.673 17.8409H220.787L223.264 8.36364H224.855L227.332 17.8409H227.446L229.878 8.36364H231.31L228.128 20H226.673L224.105 10.7273H224.014L221.446 20H219.991ZM232.884 20V11.2727H234.224V20H232.884ZM233.565 9.81818C233.304 9.81818 233.079 9.72917 232.889 9.55114C232.704 9.37311 232.611 9.15909 232.611 8.90909C232.611 8.65909 232.704 8.44508 232.889 8.26705C233.079 8.08902 233.304 8 233.565 8C233.827 8 234.05 8.08902 234.236 8.26705C234.425 8.44508 234.52 8.65909 234.52 8.90909C234.52 9.15909 234.425 9.37311 234.236 9.55114C234.05 9.72917 233.827 9.81818 233.565 9.81818ZM240.476 11.2727V12.4091H235.953V11.2727H240.476ZM237.271 9.18182H238.612V17.5C238.612 17.8788 238.667 18.1629 238.777 18.3523C238.891 18.5379 239.035 18.6629 239.209 18.7273C239.387 18.7879 239.574 18.8182 239.771 18.8182C239.919 18.8182 240.04 18.8106 240.135 18.7955C240.23 18.7765 240.305 18.7614 240.362 18.75L240.635 19.9545C240.544 19.9886 240.417 20.0227 240.254 20.0568C240.091 20.0947 239.885 20.1136 239.635 20.1136C239.256 20.1136 238.885 20.0322 238.521 19.8693C238.161 19.7064 237.862 19.4583 237.624 19.125C237.389 18.7917 237.271 18.3712 237.271 17.8636V9.18182ZM244.021 14.75V20H242.68V8.36364H244.021V12.6364H244.135C244.339 12.1856 244.646 11.8277 245.055 11.5625C245.468 11.2936 246.018 11.1591 246.703 11.1591C247.298 11.1591 247.819 11.2784 248.266 11.517C248.713 11.7519 249.059 12.1136 249.305 12.6023C249.555 13.0871 249.68 13.7045 249.68 14.4545V20H248.339V14.5455C248.339 13.8523 248.16 13.3163 247.8 12.9375C247.444 12.5549 246.949 12.3636 246.317 12.3636C245.877 12.3636 245.483 12.4564 245.135 12.642C244.79 12.8277 244.518 13.0985 244.317 13.4545C244.12 13.8106 244.021 14.2424 244.021 14.75Z" fill="#8899A8"/>
</svg>
