<svg width="41" height="40" viewBox="0 0 41 40" fill="none" xmlns="http://www.w3.org/2000/svg">
<g clip-path="url(#clip0_504_92)">
<path opacity="0.72" d="M40.0882 18.352C40.0685 18.1524 39.9758 17.9671 39.8277 17.8314C39.6796 17.6956 39.4864 17.6189 39.2852 17.616H19.2732C18.7298 17.6292 18.1993 17.7838 17.7344 18.0645C17.2695 18.3452 16.8864 18.7422 16.6231 19.216C16.3794 19.6397 16.2512 20.1196 16.2512 20.608C16.2512 21.0963 16.3794 21.5762 16.6231 22C16.6927 22.1332 16.796 22.2461 16.9227 22.3275C17.0495 22.4088 17.1952 22.4559 17.3458 22.464H39.3334C39.5347 22.461 39.7278 22.3843 39.8759 22.2486C40.024 22.1128 40.1168 21.9275 40.1365 21.728C40.1365 21.104 40.1365 20.576 40.1365 20.128C40.1365 19.68 40.1364 18.96 40.0882 18.352Z" fill="#3758F9"/>
<path d="M40.0721 18.352C40.0562 18.1538 39.9669 17.9687 39.8214 17.8326C39.6759 17.6965 39.4847 17.6193 39.2852 17.616H36.073C35.9603 17.6172 35.8491 17.6421 35.7467 17.689C35.6443 17.7358 35.5531 17.8036 35.4787 17.888C35.4038 17.9691 35.3477 18.0655 35.3144 18.1706C35.2811 18.2757 35.2714 18.3867 35.286 18.496C35.286 19.008 35.286 19.52 35.286 20.096C35.2819 22.6491 34.6325 25.1601 33.3974 27.3971C32.1623 29.6342 30.3813 31.5253 28.2191 32.896C27.9943 33.04 27.7856 33.216 27.5447 33.344C26.3661 34.0126 25.1016 34.5186 23.7863 34.848L25.8903 38.576C25.9618 38.6992 26.0649 38.8013 26.1891 38.8716C26.3134 38.9419 26.4541 38.9779 26.5969 38.976C26.6819 38.9913 26.769 38.9913 26.854 38.976L27.3678 38.768L27.8337 38.576C28.5441 38.282 29.2361 37.9454 29.9056 37.568C33.037 35.8107 35.6389 33.2501 37.4409 30.1522C39.2428 27.0544 40.1792 23.5323 40.1525 19.952C40.1525 19.36 40.1203 18.896 40.0721 18.352Z" fill="#3758F9"/>
<path d="M28.7035 33.5387C28.5956 33.3562 28.424 33.2195 28.2216 33.1547H27.9967C27.8573 33.1558 27.72 33.1886 27.5952 33.2507C25.305 34.5489 22.7137 35.2274 20.0788 35.2187C16.0347 35.2102 12.1587 33.6061 9.29915 30.7574C6.43957 27.9086 4.8293 24.0474 4.82081 20.0187C4.8293 15.99 6.43957 12.1287 9.29915 9.27999C12.1587 6.43126 16.0347 4.82713 20.0788 4.81867C22.7125 4.81951 25.3014 5.49735 27.5952 6.78666C27.7151 6.86248 27.8547 6.90144 27.9967 6.89866H28.1734C28.2835 6.87445 28.3874 6.82785 28.4786 6.76177C28.5698 6.6957 28.6465 6.61157 28.7035 6.51467L30.3096 3.73067C30.4158 3.54551 30.445 3.3263 30.391 3.11997C30.3369 2.91363 30.2039 2.73657 30.0204 2.62667C26.9973 0.924775 23.5834 0.0317974 20.1109 0.0346749C14.789 0.0431374 9.68741 2.15299 5.92422 5.90189C2.16104 9.65078 0.0431627 14.7329 0.034668 20.0347C0.0431627 25.3364 2.16104 30.4186 5.92422 34.1675C9.68741 37.9164 14.789 40.0262 20.1109 40.0347C23.5834 40.0375 26.9973 39.1446 30.0204 37.4427C30.1123 37.3913 30.1929 37.3221 30.2575 37.2391C30.322 37.1561 30.3691 37.0611 30.3961 36.9596C30.423 36.8581 30.4294 36.7523 30.4145 36.6484C30.3996 36.5445 30.3639 36.4446 30.3096 36.3547L28.7035 33.5387Z" fill="#3758F9"/>
<path opacity="0.56" d="M22.3729 22.4H17.2977C17.1538 22.3898 17.0143 22.3452 16.8913 22.27C16.7683 22.1948 16.6653 22.0912 16.5909 21.968L25.9225 38.432C25.9939 38.5553 26.097 38.6573 26.2213 38.7277C26.3455 38.798 26.4862 38.834 26.6291 38.832C26.7194 38.8472 26.8118 38.8472 26.9022 38.832C27.9634 38.4514 28.9898 37.9803 29.9699 37.424C30.0618 37.3726 30.1422 37.3034 30.2067 37.2204C30.2712 37.1375 30.3184 37.0424 30.3453 36.9409C30.3723 36.8395 30.3786 36.7336 30.3638 36.6297C30.3489 36.5258 30.3132 36.4259 30.2589 36.336L22.3729 22.4Z" fill="#3758F9"/>
</g>
<defs>
<clipPath id="clip0_504_92">
<rect width="40.1525" height="40" fill="white"/>
</clipPath>
</defs>
</svg>
