<svg width="20" height="20" viewBox="0 0 20 20" fill="none" xmlns="http://www.w3.org/2000/svg">
<path d="M18.2942 5.37494C18.4056 5.24509 18.2604 5.07539 18.0955 5.13618C17.7277 5.27185 17.3915 5.36134 16.8944 5.41659C17.5059 5.07609 17.7903 4.58941 18.0216 3.99333C18.0774 3.84955 17.9091 3.71909 17.7642 3.78777C17.1756 4.06684 16.5405 4.27389 15.8727 4.39623C15.2126 3.74204 14.2717 3.33325 13.2309 3.33325C11.2322 3.33325 9.61144 4.84056 9.61144 6.69923C9.61144 6.96309 9.64377 7.22012 9.70477 7.46621C6.83173 7.33235 4.26986 6.10333 2.49 4.21876C2.36801 4.08959 2.14665 4.10674 2.07069 4.26428C1.86806 4.68458 1.75509 5.15083 1.75509 5.64172C1.75509 6.80929 2.39386 7.83944 3.36488 8.44308C2.9295 8.43 2.51314 8.34517 2.12944 8.2012C1.94262 8.13112 1.72847 8.25429 1.75357 8.44267C1.94626 9.88925 3.11744 11.0827 4.62918 11.3647C4.32559 11.4419 4.00584 11.4829 3.67507 11.4829C3.59487 11.4829 3.51536 11.4804 3.43658 11.4756C3.2361 11.4632 3.07317 11.6425 3.15912 11.8141C3.72621 12.9459 4.95072 13.7361 6.37568 13.7607C5.1371 14.6637 3.57657 15.2017 1.88079 15.2017C1.67169 15.2017 1.58199 15.4705 1.76749 15.5617C3.20019 16.2659 4.83174 16.6666 6.56533 16.6666C13.2228 16.6666 16.8628 11.5377 16.8628 7.08955C16.8628 6.94395 16.8591 6.79834 16.8525 6.65411C17.3929 6.29109 17.8786 5.85941 18.2942 5.37494Z" fill="white"/>
</svg>
